<?xml version="1.0" standalone="no"?>
<!DOCTYPE svg PUBLIC "-//W3C//DTD SVG 20010904//EN"
 "http://www.w3.org/TR/2001/REC-SVG-20010904/DTD/svg10.dtd">
<svg version="1.0" xmlns="http://www.w3.org/2000/svg"
 width="500.000000pt" height="500.000000pt" viewBox="0 0 500.000000 500.000000"
 preserveAspectRatio="xMidYMid meet">

<g transform="translate(0.000000,500.000000) scale(0.100000,-0.100000)"
fill="#000000" stroke="none">
<path d="M2380 4585 c-332 -40 -639 -144 -959 -322 -581 -325 -1032 -888
-1152 -1436 -18 -83 -20 -140 -25 -587 -3 -272 -9 -525 -14 -562 -18 -122 -18
-122 63 -207 125 -130 154 -182 202 -363 13 -50 32 -102 41 -115 l16 -26 124
7 c155 9 175 2 226 -87 20 -34 39 -73 43 -86 18 -58 65 -150 95 -184 41 -47
76 -48 180 -7 149 59 221 31 312 -124 70 -119 159 -196 227 -196 25 0 81 27
138 66 21 14 70 42 108 62 61 32 79 36 140 36 82 0 137 -24 223 -98 87 -75
107 -86 152 -86 55 0 73 11 153 91 78 79 125 109 220 139 83 27 132 23 257
-21 153 -53 203 -38 256 76 19 41 34 78 34 83 0 28 97 114 167 149 74 36 81
38 212 44 147 7 199 21 224 61 8 12 25 58 36 101 31 115 61 166 153 259 62 62
104 95 168 128 95 50 90 43 109 188 16 125 61 206 160 282 92 71 117 103 131
166 14 62 1 122 -52 233 -22 46 -42 99 -45 116 -8 50 22 98 98 160 86 70 113
116 97 171 -5 22 -43 86 -83 144 -40 58 -77 121 -83 140 -6 19 -10 89 -10 155
1 150 -20 234 -98 390 -83 165 -172 291 -297 421 -189 197 -416 370 -602 459
-168 80 -415 148 -655 181 -132 17 -543 17 -690 -1z m-66 -326 c-1 -24 -7 -91
-14 -148 -10 -82 -10 -137 -1 -260 7 -86 15 -172 20 -191 l7 -35 32 68 c18 38
32 70 32 73 0 10 100 206 133 261 36 60 97 123 118 123 24 0 49 -22 49 -43 0
-34 -19 -52 -73 -72 -69 -26 -88 -57 -197 -310 -12 -27 -28 -65 -36 -82 -8
-18 -20 -48 -28 -65 -21 -49 -24 -98 -6 -98 6 0 10 5 10 11 0 5 10 31 21 57
12 26 34 74 49 107 15 33 37 82 49 108 24 52 48 67 111 67 41 0 58 -13 42 -33
-26 -32 -105 -186 -121 -236 -25 -76 0 -112 47 -69 31 29 117 161 166 254 24
48 44 74 59 78 35 9 95 7 102 -4 4 -6 -27 -66 -68 -133 -117 -192 -129 -221
-77 -190 17 9 30 20 30 23 0 3 16 23 35 44 30 34 35 37 41 22 9 -24 -17 -69
-78 -132 -85 -87 -171 -115 -199 -63 -12 24 -24 24 -58 0 -43 -31 -76 -35
-110 -15 -17 10 -34 27 -37 37 -5 16 -8 17 -22 4 -23 -20 -138 -77 -156 -77
-16 0 -18 7 -36 165 -14 112 -8 433 8 505 16 69 23 127 15 110 -5 -8 -26 -42
-47 -74 -21 -33 -67 -119 -101 -191 -128 -270 -252 -429 -381 -490 -76 -36
-186 -39 -232 -6 -46 32 -64 67 -64 125 -1 76 25 119 89 145 67 27 143 -12
143 -72 0 -29 -31 -67 -54 -67 -23 0 -95 -33 -100 -46 -8 -22 4 -44 35 -59 68
-36 168 -1 257 87 59 58 148 195 234 358 119 227 174 316 250 403 37 42 88 79
103 74 6 -2 9 -24 9 -48z m1009 -85 c3 -3 2 -14 -4 -23 -5 -9 -37 -77 -72
-151 -35 -74 -87 -172 -115 -217 -61 -97 -49 -111 26 -35 52 53 126 88 165 78
64 -16 88 -73 57 -132 -26 -48 -90 -65 -104 -27 -8 20 23 83 40 83 8 0 14 5
14 10 0 19 -16 10 -73 -41 -58 -52 -69 -77 -42 -99 17 -14 22 -135 5 -145 -17
-10 -11 -25 9 -25 49 0 141 60 166 107 30 60 111 167 159 211 79 73 145 96
201 70 19 -9 28 -9 37 0 17 17 97 15 104 -2 8 -20 -32 -100 -118 -241 -20 -33
-40 -73 -44 -89 -6 -26 -5 -27 14 -17 11 6 40 34 65 63 39 45 47 50 53 35 10
-26 -13 -63 -81 -132 -91 -92 -167 -117 -196 -64 -12 24 -24 24 -57 0 -67 -46
-128 -29 -156 43 l-16 40 -43 -41 c-81 -80 -212 -94 -238 -25 -12 32 -3 95 22
144 l19 38 -27 6 c-16 4 -33 11 -39 16 -14 10 -36 -23 -84 -125 -34 -72 -49
-84 -122 -94 -65 -10 -62 3 54 217 20 36 73 137 118 225 45 88 96 185 113 215
17 30 36 65 43 78 6 13 20 29 30 37 19 14 105 21 117 9z m-1619 -875 c116 -9
486 -57 761 -100 60 -9 238 -32 390 -49 149 -18 532 -24 688 -11 158 13 372
59 482 105 33 13 62 22 65 19 10 -10 -120 -120 -179 -152 -245 -130 -694 -162
-1556 -110 -99 6 -241 17 -315 25 -444 47 -747 64 -885 49 -74 -8 -188 -41
-253 -74 -66 -34 -138 -115 -148 -168 -5 -29 -2 -39 22 -64 24 -25 26 -32 14
-40 -8 -5 -43 -8 -77 -6 -49 2 -68 8 -88 27 -62 59 -11 193 124 319 59 55 166
126 211 139 19 6 67 22 107 36 164 57 373 75 637 55z m720 -432 c-1 -39 -16
-81 -79 -222 -8 -16 -39 -91 -70 -165 -31 -74 -60 -144 -65 -155 -4 -11 -27
-65 -50 -120 -23 -55 -48 -113 -55 -130 -37 -84 -77 -217 -67 -227 6 -6 13 0
21 19 6 15 19 40 29 54 9 15 33 53 52 84 19 31 43 69 52 84 10 14 21 33 25 41
4 8 22 36 40 62 18 26 33 50 33 53 0 9 44 69 53 73 4 2 7 9 7 16 0 7 9 21 20
31 11 10 20 24 20 32 0 7 7 16 15 19 8 4 15 10 15 15 0 11 55 93 97 145 18 23
33 46 33 52 0 6 6 15 13 19 7 4 34 35 59 68 89 115 180 195 223 195 46 0 46 1
-65 -245 -17 -38 -37 -83 -45 -100 -8 -16 -23 -52 -35 -80 -25 -58 -41 -96
-63 -145 -15 -34 -44 -109 -90 -232 -40 -106 -87 -276 -87 -312 0 -10 9 -16
24 -16 17 0 60 32 138 103 62 56 122 107 132 112 10 6 28 29 41 53 58 109 166
214 262 256 64 28 142 26 181 -4 26 -21 31 -32 31 -68 1 -24 -3 -48 -9 -55
-72 -90 -88 -100 -131 -77 -31 17 -23 55 21 101 45 48 46 49 24 49 -51 0 -143
-105 -215 -247 -39 -76 -49 -106 -49 -145 0 -59 13 -67 75 -43 31 11 72 44
129 101 78 78 116 102 116 71 0 -7 -32 -52 -71 -100 -50 -63 -91 -102 -139
-133 -67 -43 -71 -44 -151 -44 -74 0 -84 2 -104 25 -29 31 -39 73 -30 135 4
28 4 50 2 50 -3 0 -27 -19 -53 -42 -26 -24 -61 -56 -78 -71 -17 -15 -49 -40
-71 -55 -22 -15 -41 -30 -43 -34 -2 -5 -30 -8 -63 -8 -68 0 -87 12 -119 76
-26 50 -26 139 0 224 24 76 100 236 141 298 16 24 29 45 29 47 0 3 103 157
220 328 74 110 54 121 -36 21 -38 -42 -73 -82 -77 -90 -4 -8 -19 -26 -32 -40
-21 -23 -106 -141 -130 -182 -21 -35 -50 -77 -62 -90 -7 -7 -13 -19 -13 -27 0
-7 -3 -15 -7 -17 -10 -4 -53 -65 -53 -74 0 -4 -6 -15 -14 -23 -8 -9 -26 -38
-40 -66 -15 -27 -31 -57 -36 -65 -5 -8 -39 -67 -76 -130 -37 -63 -80 -132 -97
-153 -27 -34 -33 -38 -71 -35 -39 3 -43 6 -68 57 -56 110 -30 206 139 521 33
61 187 319 226 378 9 15 23 39 29 55 7 15 16 27 20 27 4 0 8 8 8 18 -1 16 -1
16 -14 0 -7 -10 -18 -18 -24 -18 -6 0 -12 -4 -14 -9 -1 -4 -15 -23 -31 -42
-84 -104 -202 -272 -377 -539 -190 -290 -249 -361 -351 -425 -32 -21 -51 -25
-114 -25 l-75 0 -50 48 -50 48 0 77 c0 81 -2 77 63 145 47 50 118 56 166 16
62 -52 32 -125 -64 -159 -75 -26 -95 -41 -95 -73 0 -63 111 -95 181 -53 93 57
215 208 399 497 8 12 33 49 56 81 22 32 58 83 79 113 170 243 367 464 409 458
17 -2 21 -10 20 -41z"/>
<path d="M3662 3741 c-89 -92 -154 -233 -123 -264 9 -9 19 -4 41 20 30 32 146
216 168 266 11 25 10 27 -14 27 -17 0 -40 -16 -72 -49z"/>
<path d="M2750 2790 c0 -5 5 -10 10 -10 6 0 10 5 10 10 0 6 -4 10 -10 10 -5 0
-10 -4 -10 -10z"/>
</g>
</svg>
